inDegrees=no
num_controls=7
num_derivatives=13
num_iterations=141
num_multipliers=7
num_parameters=0
num_slacks=7
num_states=26
objective=5.441167
objective_accelerations=0.531732
objective_balance=0.004669
objective_effort=0.427852
objective_height=4.426341
objective_ligament=0.050572
solver_duration=1226.229554
status=Solve_Succeeded
success=true
DataType=double
version=3
OpenSimVersion=4.4-2022-07-23-0e9fedc
endheader
time	/jointset/ground_pelvis/pelvis_tilt/value	/jointset/ground_pelvis/pelvis_tx/value	/jointset/ground_pelvis/pelvis_ty/value	/jointset/hip_r/hip_flexion_r/value	/jointset/hip_r/hip_adduction_r/value	/jointset/hip_r/hip_rotation_r/value	/jointset/back/lumbar_extension/value	/jointset/patellofemoral_r/patellar_flexion_r/value	/jointset/knee_r/knee_flexion_r/value	/jointset/knee_r/knee_adduction_r/value	/jointset/knee_r/knee_rotation_r/value	/jointset/ankle_r/ankle_angle_r/value	/jointset/subtalar_r/subtalar_angle_r/value	/jointset/ground_pelvis/pelvis_tilt/speed	/jointset/ground_pelvis/pelvis_tx/speed	/jointset/ground_pelvis/pelvis_ty/speed	/jointset/hip_r/hip_flexion_r/speed	/jointset/hip_r/hip_adduction_r/speed	/jointset/hip_r/hip_rotation_r/speed	/jointset/back/lumbar_extension/speed	/jointset/patellofemoral_r/patellar_flexion_r/speed	/jointset/knee_r/knee_flexion_r/speed	/jointset/knee_r/knee_adduction_r/speed	/jointset/knee_r/knee_rotation_r/speed	/jointset/ankle_r/ankle_angle_r/speed	/jointset/subtalar_r/subtalar_angle_r/speed	/forceset/tau_hip_flexion_r	/forceset/tau_hip_adduction_r	/forceset/tau_hip_rotation_r	/forceset/tau_knee_flexion_r	/forceset/tau_ankle_angle_r	/forceset/tau_subtalar_angle_r	/forceset/tau_lumbar_extension	lambda_cid13_p0	lambda_cid14_p0	lambda_cid14_p1	lambda_cid14_p2	lambda_cid14_p3	lambda_cid14_p4	lambda_cid14_p5	/jointset/ground_pelvis/pelvis_tilt/accel	/jointset/ground_pelvis/pelvis_tx/accel	/jointset/ground_pelvis/pelvis_ty/accel	/jointset/hip_r/hip_flexion_r/accel	/jointset/hip_r/hip_adduction_r/accel	/jointset/hip_r/hip_rotation_r/accel	/jointset/back/lumbar_extension/accel	/jointset/patellofemoral_r/patellar_flexion_r/accel	/jointset/knee_r/knee_flexion_r/accel	/jointset/knee_r/knee_adduction_r/accel	/jointset/knee_r/knee_rotation_r/accel	/jointset/ankle_r/ankle_angle_r/accel	/jointset/subtalar_r/subtalar_angle_r/accel	gamma_cid13_p0	gamma_cid14_p0	gamma_cid14_p1	gamma_cid14_p2	gamma_cid14_p3	gamma_cid14_p4	gamma_cid14_p5
0.5	-0.110971401688742	0.0322716638385656	0.8190617094695901	0.8277444924463948	-0.2345377618761037	-0.1012716103923458	-0.6413839235928218	0.9199028708991038	0.9199028708995387	0.001316138016037288	0.1745164421245875	0.2862820301279821	0.1171532374065668	-0.2931103496929008	-0.1899688335267643	-0.4499366687590436	1.692436330194483	-0.04267520221590752	0.3498353676877455	-0.7365271320307438	1.845429445132929	1.845429445133229	-0.2212133967767231	-0.0002599564037561133	0.5255269889822288	0.1245071395321411	-0.1792332370974312	0.001148182985623532	0.024499069173401	-0.2940677044733343	0.007823136207201773	-0.005398632453211702	0.2290541444906209	-10.0159416267567	-40.36475813668149	-7.751376805810598	-0.239347722366837	-4.351771016047326	-642.8689050606303	63.50851081121094	0.2677835569494576	0.5425822948596172	-0.3794799367160074	-1.16584561315958	-0.01515028636551547	-0.1417603874536821	1.675854936112539	-1.227242472925869	-1.227242472926001	0.6334564149945749	-0.03269377537408914	-0.4331556605244341	-0.08483967175738077	-3.699686097236129e-08	9.940023932348123e-08	1.512956076481935e-06	4.255376153180524e-07	-2.118937662171634e-07	-6.917821972673974e-08	9.644201245770083e-07
0.51	-0.1138885658218434	0.0303992748942639	0.8145443576420205	0.8446081096970066	-0.234965465095892	-0.09778235511592782	-0.6486646507483311	0.9382930548418723	0.9382930548416542	-0.0008648886469812889	0.174514010499801	0.2915147215317585	0.1183934386615434	-0.2902752121122982	-0.1844923794076805	-0.4534356024870037	1.680061009007423	-0.04285242846106685	0.3480002330559964	-0.7195321126308635	1.832360081242669	1.832360081243018	-0.2149846361473894	-0.0002286789280214201	0.5209392996549136	0.1235226042126772	-0.1849455360530526	0.00205077104657282	0.02474023972539352	-0.2986371457815582	0.006744985441059115	-0.004839056224414587	0.234505316622007	-9.036611010510493	-40.95840322461493	-7.725213313223841	-0.1145402200212306	-4.286142000972063	-647.1837447660732	63.88769292827734	0.2984801756276673	0.55262111219206	-0.3204016158721142	-1.307278727040752	-0.01690912447785826	-0.2067872793482164	1.724253407176541	-1.383863855869618	-1.383863855862907	0.6188947056305507	0.02080280942400279	-0.4824154385671043	-0.1065522250567603	-5.146000918383047e-08	7.852690639922966e-08	1.49955204033637e-06	2.605721615190937e-07	-2.003005839128382e-07	-8.49889245802972e-08	9.827662994277296e-07
0.52	-0.1167759583156563	0.02858213931950295	0.8099949561721655	0.8613411930646813	-0.2353945206442177	-0.09431193064164682	-0.6557728421167771	0.9565451290441244	0.9565451290430143	-0.002983365939690911	0.1745118445096381	0.2966993680683329	0.1196235362107286	-0.2871560218513282	-0.1789181596186147	-0.456346597216505	1.666329553597831	-0.04294566794162454	0.3460692072917677	-0.7020199746209872	1.817807497000678	1.817807497001074	-0.2087035227689575	-0.000206829437176625	0.5159180155383239	0.1224863983725532	-0.1906578350087959	0.002953359107126074	0.02498141027591664	-0.3032065870898559	0.005666834674823496	-0.004279479996259383	0.2399564887533543	-8.09356765448233	-41.55196463685623	-7.694199339756191	0.00397086227793235	-4.243186859664113	-651.5113951224369	64.29090334754034	0.3245940930227783	0.5621354288562954	-0.2618921370242657	-1.437072457666127	0.001647066554805905	-0.1609386139496123	1.779278658111666	-1.523886543272235	-1.523886543272383	0.6439269648139302	-0.03457937235220908	-0.5198746183788379	-0.09517377588908317	-6.633564156715209e-08	5.108924101297139e-08	1.412651459083396e-06	5.709829878306636e-08	-1.781996620029276e-07	-9.845101099080527e-08	9.468590839573521e-07
0.53	-0.1196307474532682	0.02682118542224554	0.8054194293861541	0.8779302064766823	-0.2358242460028416	-0.09086076853672	-0.6627034748289189	0.9746443659516683	0.974644365951595	-0.005038135480555195	0.1745097453683494	0.3018316299260604	0.1208427435301088	-0.2837566139572096	-0.1732607515436537	-0.4586565770853915	1.651251435826226	-0.04298633556779959	0.3441404927021131	-0.6840324302391797	1.801799006841327	1.801799006841562	-0.2022492296020455	-0.0002097974890070217	0.5104669249763082	0.121345497580344	-0.1962576049195681	0.003788444017178697	0.02518004204903261	-0.3079187775649379	0.004601762845080545	-0.003781283051713877	0.2452977806352745	-7.204946212866778	-42.15430310968356	-7.691344828920403	0.1269316619646906	-4.14764083904738	-655.9366520938241	64.67175029491949	0.3543976825337691	0.5692904223279274	-0.2002445812966827	-1.576430049819022	-0.004890868816965463	-0.2123662206737974	1.81961296280057	-1.675447069165466	-1.67544706919027	0.6465390525483492	0.01735432628241783	-0.5678796024153467	-0.1247751107311249	-7.356700701622423e-08	3.374865367405839e-08	1.325474946419027e-06	-6.788012920339833e-08	-1.6148787567989e-07	-1.028023329676204e-07	9.042035458729884e-07
0.54	-0.1224501858028686	0.025117154990838	0.8008238640675611	0.894361788988442	-0.2362539714759815	-0.08742959924561837	-0.6694520079703111	0.9925762945940741	0.9925762945953085	-0.007028290378312136	0.1745077185164497	0.306907350212717	0.1220502964656058	-0.2800858642661047	-0.1675334664486386	-0.4603543037333053	1.634843373538115	-0.04294569085851337	0.3420706445444099	-0.6656000604739946	1.784345844006038	1.784345844006113	-0.1957805940383795	-0.0001923716256156477	0.5046097013222047	0.1201555215943494	-0.2018573748303703	0.004623528927117036	0.02537867382483854	-0.3126309680398198	0.003536691015321456	-0.003283086107391505	0.2506390725171859	-6.371636947008426	-42.75533211490733	-7.681607820384587	0.2411959017476377	-4.082226446821439	-660.3609736194907	65.08829419933029	0.3788624524199179	0.5761108328672286	-0.1394414928297558	-1.703061360967324	0.01790953364726169	-0.1891653275595398	1.868243734787114	-1.812821078459475	-1.812821078459347	0.6467954441644672	-0.03050058930773294	-0.6011012367960619	-0.1049888146460417	-7.234088564442451e-08	2.757930162157007e-08	1.237993147937796e-06	-1.060125442754523e-07	-1.507385372402013e-07	-9.707366025183896e-08	8.540817785135757e-07
0.55	-0.1252316191149906	0.02347068869434815	0.7962144021575411	0.9106227788168799	-0.2366828885387001	-0.08401955299854577	-0.6760140855531224	1.010326603173509	1.010326603175515	-0.008953532831213338	0.1745057772134632	0.3119225138230172	0.1232456920973082	-0.2761579819555353	-0.1617533530246347	-0.4614332107153371	1.617139456148749	-0.04282499782043181	0.3399188373377283	-0.6467538740343639	1.765483340861784	1.765483340861634	-0.1892650625318744	-0.000195350048327649	0.4983593688491771	0.1189142667052312	-0.2073367502868851	0.005440810880672964	0.02554242821681796	-0.3174065525289042	0.002401643824316085	-0.002867736138847555	0.2558453493685593	-5.594040520590622	-43.39060885711356	-7.716092312785674	0.3650737717206708	-3.927911506404836	-664.824800769069	65.43615606455545	0.406176348991716	0.5798985957227052	-0.07640395758947252	-1.836324115344863	0.0111042559417926	-0.2312701385559885	1.902043406136265	-1.95783024728887	-1.95783024732337	0.6545167233983549	0.01489664254049424	-0.6465811454227265	-0.1349230636953687	-7.134631584307345e-08	2.156905038119635e-08	1.15068136575718e-06	-1.43374861105278e-07	-1.400873784252563e-07	-9.110706853495342e-08	8.00764267721547e-07
0.5600000000000001	-0.1279724885581927	0.02188221093180714	0.7915972934463638	0.9267002760340048	-0.2371102076575597	-0.08063164116785662	-0.6823858538100049	1.027881313658352	1.027881313661407	-0.01081350302564986	0.1745038247488008	0.316873257730017	0.1244284293325984	-0.2719730905004418	-0.1559357596588721	-0.4618836639652703	1.598144851262378	-0.04262610210030478	0.3376437612776894	-0.6275381952913575	1.745226225122333	1.745226225121958	-0.1827261422451822	-0.0001946040193210933	0.4917257606614935	0.1176238423100825	-0.2128161257433895	0.00625809283432242	0.025706182611505	-0.3221821370177838	0.00126659663335009	-0.002452386170194771	0.261051626219941	-4.872103797707471	-44.02507104617107	-7.74394466928682	0.4804819999934331	-3.804450795432365	-669.2953313690894	65.82051208915436	0.4302642813246812	0.5836068212189158	-0.01375074641007774	-1.961198860368463	0.03355007005643437	-0.2138190982314249	1.942142195462206	-2.091743597498699	-2.091743597498454	0.6514732002015916	-0.02975569896368023	-0.6777563797271506	-0.1148227158521844	-7.062960792626079e-08	1.574972011536013e-08	1.063573603137301e-06	-1.798130600444298e-07	-1.295540351600039e-07	-8.485497401674294e-08	7.436118648103791e-07
0.5700000000000001	-0.1306702952807826	0.02035204463468695	0.7869788345826345	0.9425815112609628	-0.2375351396078838	-0.07726689037012933	-0.688563694570749	1.045226599731766	1.045226599732284	-0.01260787058001061	0.1745017423188513	0.3217557991885888	0.1255980262526711	-0.2675488153655041	-0.1500959177204151	-0.461701175072243	1.577893336349748	-0.04234748704732012	0.3352822148050915	-0.6079798923379977	1.723605085421908	1.723605085421539	-0.1761487374651648	-0.0002208910655644944	0.4847227628045612	0.1162873789988779	-0.2181431191748034	0.007005925395200432	0.02584304137245549	-0.3270217570507496	8.601065813077877e-05	-0.002092417394367615	0.266094495699814	-4.205425415789122	-44.68129570455281	-7.799490791961546	0.6001123772525816	-3.602227130083135	-673.7668073206777	66.17037420780804	0.4544257598944175	0.5843854672720672	0.0502724994695187	-2.088455326035767	0.02696009158383865	-0.251062243362943	1.970184022824061	-2.231170730174766	-2.231170730174767	0.6608045131310335	0.0110778719909528	-0.720566205672036	-0.1441473999859026	-6.947867382818983e-08	1.047307079602758e-08	9.750757507176615e-07	-2.110936762338834e-07	-1.192229699586165e-07	-7.758677463274575e-08	6.830248696120518e-07
0.58	-0.1333226759258554	0.01888031927437183	0.7823654053663006	0.9582539658349842	-0.2379568968338316	-0.07392650300170253	-0.6945444503664312	1.062348900093328	1.062348900091469	-0.01433647800757845	0.1744994256342321	0.3265665117252224	0.1267540406873957	-0.2628878750180361	-0.1442475722978574	-0.4608777344867295	1.556388720664047	-0.04199115724761569	0.3327710754689179	-0.5881212022826229	1.700629082767092	1.700629082766728	-0.1695741168359407	-0.0002414549339558232	0.4773599762678012	0.1149073452383832	-0.2234701126063764	0.007753757955443712	0.02597990013454906	-0.3318613770835971	-0.001094575317237189	-0.001732448619620914	0.271137365179619	-3.593439657823982	-45.3373431759417	-7.848609822628853	0.7114124829462573	-3.431072217642964	-678.255061756731	66.55762251407326	0.4775973238309389	0.5853075180388853	0.1144395920870838	-2.211819014982815	0.04909301940053386	-0.2437376709470311	2.002219615865197	-2.36271618837655	-2.362716188376519	0.650916370042443	-0.02861106339288854	-0.7497141156927333	-0.1235368057102385	-6.776223586615462e-08	5.903168755862611e-09	8.847675487913564e-07	-2.356574404702419e-07	-1.091553366543559e-07	-6.899527588865439e-08	6.179649170164942e-07
0.59	-0.1359273617989314	0.0174670624227665	0.7777634130557778	0.9737052908051299	-0.2383746742912549	-0.07061186065029189	-0.7003252371773778	1.079234784353602	1.079234784353063	-0.01599935915142839	0.1744967937770558	0.3313018404865248	0.1278960803802068	-0.2580147641723985	-0.1384075530084994	-0.459412891240464	1.533676424451498	-0.04155143248653124	0.3301209346805962	-0.5680033726923208	1.676327941561352	1.676327941560802	-0.1630144459750894	-0.0002802940767755799	0.469648623346624	0.1134934477148701	-0.228539846861477	0.008458251513440316	0.02609783361845937	-0.3367901642351785	-0.002224579311239297	-0.001460707739899311	0.2759166687002984	-3.035140345207435	-45.98157332653959	-7.939183367601484	0.8352682032325869	-3.190805520349942	-682.6556318471692	66.87756103493987	0.4973473350114307	0.5827652342273664	0.1786693548309128	-2.330912886408155	0.04335112730176889	-0.2812253172294476	2.021482712587007	-2.496773891170607	-2.496773891199206	0.6567544196040652	0.009153098763124512	-0.7904433135950729	-0.1512874238609661	-6.623930646417923e-08	1.965244408420751e-09	8.014920126817612e-07	-2.565203318411266e-07	-1.001044479592361e-07	-6.034115588046885e-08	5.566513719866133e-07
